<svg width="36" height="33" viewBox="0 0 36 33" fill="none" xmlns="http://www.w3.org/2000/svg">
<path d="M33.2 0.934219H2.79998C1.25606 0.934219 0 2.19035 0 3.7342C0 4.99667 0 28.0085 0 29.2657C0 30.8097 1.25606 32.0657 2.79998 32.0657H33.2C34.7439 32.0657 36 30.8097 36 29.2657C36 28.0078 36 4.99631 36 3.7342C36 2.19035 34.7439 0.934219 33.2 0.934219ZM33.6 29.2657C33.6 29.4863 33.4206 29.6657 33.2 29.6657H2.79998C2.57941 29.6657 2.39998 29.4863 2.39998 29.2657V9.31681H33.6V29.2657H33.6ZM33.6 6.91683H2.39998V3.7342C2.39998 3.51363 2.57941 3.3342 2.79998 3.3342H33.2C33.4206 3.3342 33.6 3.51363 33.6 3.7342V6.91683Z" fill="black"/>
<path d="M5.04879 6.02815C5.54724 6.02815 5.95132 5.62407 5.95132 5.12562C5.95132 4.62716 5.54724 4.22308 5.04879 4.22308C4.55033 4.22308 4.14626 4.62716 4.14626 5.12562C4.14626 5.62407 4.55033 6.02815 5.04879 6.02815Z" fill="black"/>
<path d="M7.94243 6.0281C8.44088 6.0281 8.84496 5.62402 8.84496 5.12557C8.84496 4.62712 8.44088 4.22304 7.94243 4.22304C7.44397 4.22304 7.0399 4.62712 7.0399 5.12557C7.0399 5.62402 7.44397 6.0281 7.94243 6.0281Z" fill="black"/>
<path d="M10.836 6.02815C11.3345 6.02815 11.7385 5.62407 11.7385 5.12562C11.7385 4.62716 11.3345 4.22308 10.836 4.22308C10.3375 4.22308 9.93347 4.62716 9.93347 5.12562C9.93347 5.62407 10.3375 6.02815 10.836 6.02815Z" fill="black"/>
<path d="M9.9765 24.8967C11.0961 26.0164 12.7937 24.3198 11.6736 23.1997L7.92035 19.4464L11.6736 15.6932C12.7948 14.5719 11.0989 12.8736 9.9765 13.9961L5.37483 18.5978C4.9062 19.0664 4.9062 19.8262 5.37483 20.2948L9.9765 24.8967Z" fill="black"/>
<path d="M26.0234 24.8967L30.6252 20.295C31.0935 19.8268 31.0938 19.0665 30.6252 18.5979L26.0234 13.9962C24.9024 12.8751 23.2036 14.5706 24.3264 15.6932L28.0796 19.4465L24.3264 23.1997C23.1841 24.342 24.9249 25.9952 26.0234 24.8967Z" fill="black"/>
<path d="M15.8756 26.0401L22.7447 14.1426C23.539 12.767 21.4586 11.57 20.6662 12.9426L13.7971 24.84C12.9977 26.2249 15.0902 27.4007 15.8756 26.0401Z" fill="black"/>
</svg>
